<svg width="96" height="43" viewBox="0 0 96 43" fill="none" xmlns="http://www.w3.org/2000/svg">
<g clip-path="url(#clip0_165_1235)">
<path d="M6.91665 37.0596H5.83027C4.52409 37.0596 3.27142 36.539 2.34781 35.6123C1.42421 34.6856 0.905334 33.4288 0.905334 32.1183C0.905334 30.8078 1.42421 29.551 2.34781 28.6243C3.27142 27.6976 4.52409 27.177 5.83027 27.177C6.89508 27.1677 7.93297 27.5127 8.78161 28.158" stroke="white" stroke-width="2" stroke-linecap="round" stroke-linejoin="round"/>
<path d="M6.30103 27.1952C6.34054 26.4222 6.6406 25.6855 7.15202 25.106C7.92136 24.2606 8.88206 23.6131 9.9531 23.2183C11.0241 22.8235 12.1741 22.6929 13.306 22.8375C14.4379 22.9821 15.5185 23.3977 16.4568 24.0492C17.395 24.7008 18.1633 25.5691 18.6969 26.5811C19.2305 27.593 19.5138 28.7188 19.5227 29.8636C19.5317 31.0084 19.2661 32.1386 18.7485 33.1588C18.2308 34.179 17.4762 35.0594 16.5482 35.7256C15.6203 36.3919 14.5463 36.8245 13.4168 36.9869" stroke="white" stroke-width="2" stroke-linecap="round" stroke-linejoin="round"/>
<path d="M36.774 30.6831H34.4926C34.0432 30.6831 33.5982 30.5943 33.1831 30.4218C32.7679 30.2492 32.3906 29.9963 32.0729 29.6775C31.7551 29.3587 31.503 28.9802 31.331 28.5636C31.1591 28.147 31.0705 27.7006 31.0705 27.2497C31.1001 26.9682 31.0262 26.6856 30.8629 26.4548C30.6996 26.224 30.4579 26.061 30.1833 25.9962C29.1595 25.7761 28.2417 25.2108 27.5828 24.3943C26.9239 23.5779 26.5636 22.5596 26.562 21.5091C26.5457 20.9575 26.638 20.408 26.8336 19.8923C26.8336 19.8014 26.8336 19.7288 26.8336 19.6379V19.3473C26.8423 19.2688 26.8423 19.1896 26.8336 19.1111C26.8336 19.1111 26.8336 19.0021 26.725 18.9294C26.6956 18.8608 26.6525 18.799 26.5983 18.7478C26.5535 18.6845 26.4984 18.6292 26.4353 18.5843C26.4353 18.5843 26.4353 18.5843 26.3448 18.5843C25.5086 18.0539 24.8669 17.2652 24.5164 16.3371C24.1658 15.4089 24.1254 14.3916 24.4012 13.4384C24.677 12.4853 25.2541 11.6478 26.0456 11.0523C26.837 10.4569 27.7999 10.1356 28.7891 10.1369C28.9894 10.1294 29.1836 10.0665 29.3504 9.95521C29.4618 9.90143 29.5611 9.82533 29.642 9.7316C29.723 9.63787 29.784 9.52849 29.8212 9.41022C30.8626 6.90254 32.6236 4.76219 34.8805 3.26125C37.1373 1.76031 39.7881 0.966586 42.4957 0.980982C44.3917 0.9808 46.2674 1.3727 48.0057 2.13222C49.744 2.89175 51.3076 4.00259 52.599 5.39543L52.7982 5.55893C52.9486 5.65857 53.1193 5.72332 53.2979 5.74846C53.4764 5.7736 53.6583 5.7585 53.8303 5.70426C54.2056 5.55851 54.6047 5.48457 55.0072 5.48626C55.4566 5.48626 55.9016 5.57507 56.3167 5.74762C56.7319 5.92017 57.1092 6.17307 57.427 6.4919C57.7447 6.81073 57.9968 7.18923 58.1688 7.60579C58.3408 8.02236 58.4293 8.46883 58.4293 8.91972C58.4289 9.5655 58.2401 10.197 57.8861 10.7364C57.8861 10.7364 57.8861 10.7364 57.8861 10.8817C57.8485 10.9447 57.8182 11.0117 57.7955 11.0815V11.572C57.8067 11.6625 57.8376 11.7493 57.8861 11.8264C57.8723 11.8676 57.8723 11.9123 57.8861 11.9535L58.0671 12.1534C58.1047 12.2002 58.1472 12.2428 58.1939 12.2805H58.3025L58.556 12.4077C59.8096 12.7055 60.9264 13.419 61.7256 14.4328C62.5247 15.4466 62.9595 16.7013 62.9595 17.9939C62.9595 19.2864 62.5247 20.5411 61.7256 21.5549C60.9264 22.5687 59.8096 23.2823 58.556 23.5801H58.4293L58.212 23.6709C58.212 23.6709 58.1034 23.7799 58.0309 23.8344L57.8861 23.9615C57.8892 24.0281 57.8892 24.0948 57.8861 24.1614C57.8779 24.2338 57.8779 24.3069 57.8861 24.3794V24.8517C57.9121 24.9806 57.9612 25.1037 58.0309 25.215C58.3627 25.7634 58.5439 26.3902 58.556 27.0317C58.556 27.4826 58.4675 27.929 58.2955 28.3456C58.1235 28.7622 57.8715 29.1407 57.5537 29.4595C57.2359 29.7783 56.8587 30.0312 56.4435 30.2038C56.0283 30.3763 55.5833 30.4651 55.1339 30.4651H50.3719" stroke="white" stroke-width="2" stroke-linecap="round" stroke-linejoin="round"/>
<path d="M43.6544 16.913V42.0917" stroke="white" stroke-width="2" stroke-linecap="round" stroke-linejoin="round"/>
<path d="M43.6544 27.3768L51.5669 24.5792" stroke="white" stroke-width="2" stroke-linecap="round" stroke-linejoin="round"/>
<path d="M43.6545 24.5792L35.8688 19.7288" stroke="white" stroke-width="2" stroke-linecap="round" stroke-linejoin="round"/>
<path d="M10.212 31.2645V42.0008" stroke="white" stroke-width="2" stroke-linecap="round" stroke-linejoin="round"/>
<path d="M10.212 36.3147L13.4892 34.2801" stroke="white" stroke-width="2" stroke-linecap="round" stroke-linejoin="round"/>
<path d="M10.212 34.2074L7.0434 32.2273" stroke="white" stroke-width="2" stroke-linecap="round" stroke-linejoin="round"/>
<path d="M88.2324 19.9286C89.137 19.9164 90.0348 20.0861 90.8728 20.4278C91.7109 20.7695 92.4723 21.2762 93.1119 21.918C93.7516 22.5598 94.2566 23.3236 94.5972 24.1645C94.9377 25.0053 95.1069 25.9061 95.0947 26.8137C95.0899 28.6382 94.3654 30.3867 93.0795 31.6769C91.7936 32.967 90.0509 33.694 88.2324 33.6988H86.6934" stroke="white" stroke-width="2" stroke-linecap="round" stroke-linejoin="round"/>
<path d="M75.5217 33.6988H73.7111C71.5623 33.6768 69.5039 32.8277 67.9611 31.3268C66.4183 29.826 65.5088 27.788 65.4205 25.6338C65.3322 23.4795 66.0718 21.3735 67.4866 19.7506C68.9014 18.1278 70.8833 17.112 73.023 16.913C73.6563 14.8734 74.9028 13.0802 76.5917 11.7793C78.2805 10.4784 80.3291 9.73337 82.4565 9.64639C85.0385 9.65119 87.5135 10.6824 89.3393 12.5143C91.1651 14.3462 92.1929 16.8293 92.1977 19.4199V20.6553" stroke="white" stroke-width="2" stroke-linecap="round" stroke-linejoin="round"/>
<path d="M81.1166 23.8526V42.0917" stroke="white" stroke-width="2" stroke-linecap="round" stroke-linejoin="round"/>
<path d="M81.1166 32.4453L86.6933 28.9755" stroke="white" stroke-width="2" stroke-linecap="round" stroke-linejoin="round"/>
<path d="M81.1166 28.8483L75.739 25.4875" stroke="white" stroke-width="2" stroke-linecap="round" stroke-linejoin="round"/>
</g>
<defs>
<clipPath id="clip0_165_1235">
<rect width="96" height="43" fill="white"/>
</clipPath>
</defs>
</svg>
