<svg width="57" height="56" viewBox="0 0 57 56" fill="none" xmlns="http://www.w3.org/2000/svg">
<rect width="57" height="56" fill="white"/>
<path opacity="0.7" d="M41.3038 19.6787C42.6767 19.6601 44.0394 19.9178 45.3115 20.4364C46.5835 20.955 47.7391 21.724 48.71 22.6982C49.6809 23.6723 50.4474 24.8317 50.9643 26.1079C51.4812 27.3842 51.738 28.7514 51.7195 30.1289C51.7122 32.8982 50.6125 35.5521 48.6608 37.5103C46.7091 39.4685 44.064 40.5719 41.3038 40.5791H38.9678" stroke="#75AF83" stroke-width="2.77909" stroke-linejoin="round"/>
<path opacity="0.75" d="M32.5404 2.68213C36.8283 2.6903 40.9376 4.40325 43.9682 7.44385C46.9987 10.4845 48.7043 14.6057 48.7123 18.9038V22.271H48.7172V24.8569C48.7172 24.8569 47.9463 23.8117 47.4018 23.3423C46.9117 22.9201 46.1101 22.3904 45.9545 22.2886H45.933V22.2739C45.9302 22.2721 45.9285 22.2712 45.9281 22.271H45.933V18.9087C45.9263 15.3431 44.5119 11.9257 42.0004 9.40576C39.4969 6.89398 36.1063 5.47705 32.5688 5.46143C29.6366 5.58654 26.813 6.61572 24.4838 8.40967C22.1479 10.209 20.4228 12.6907 19.5463 15.5132C19.3798 16.0492 18.9069 16.4327 18.3481 16.4849C15.4567 16.7537 12.777 18.1264 10.8637 20.3208C8.95031 22.5156 7.9494 25.3657 8.06877 28.2808C8.18829 31.1959 9.41896 33.9533 11.5053 35.9829C13.5915 38.0122 16.374 39.1592 19.2778 39.189H22.0121V41.9683H19.2494C15.6303 41.9312 12.1639 40.5006 9.56681 37.9741C6.97017 35.4479 5.43997 32.018 5.29142 28.394C5.14311 24.7701 6.38793 21.2259 8.76896 18.4946C10.9496 15.9936 13.9318 14.3483 17.186 13.8315C18.2992 10.8189 20.2367 8.17347 22.7875 6.2085C25.5781 4.05901 28.9645 2.82686 32.4809 2.68311L32.5404 2.68213Z" fill="#2B7A5C"/>
<path opacity="0.75" d="M30.5035 25.6344V53.3179" stroke="#8CB64D" stroke-width="2.77909" stroke-linejoin="round"/>
<path opacity="0.7" d="M22.0379 24.9711L20.7652 27.0603L31.9315 33.8734V31.0706L22.0379 24.9711Z" fill="#D7E3A4"/>
<path opacity="0.7" d="M40.7535 34.1084L39.6465 31.9725L29.1288 37.3612L29.1288 40.2551L40.7535 34.1084Z" fill="#BDD5A1"/>
</svg>
