<svg width="24" height="43" viewBox="0 0 24 43" fill="none" xmlns="http://www.w3.org/2000/svg">
<path d="M9.33001 22.675L11.25 21.715L11.25 28C11.25 28.42 11.58 28.75 12 28.75C12.42 28.75 12.75 28.42 12.75 28L12.75 24.715L14.67 25.675C15.045 25.855 15.495 25.705 15.675 25.345C15.855 24.97 15.705 24.52 15.345 24.34L12.765 23.05L12.765 1.515C12.765 1.095 12.435 0.764999 12.015 0.764999C11.595 0.764999 11.265 1.095 11.265 1.515L11.265 20.05L8.68501 21.34C8.31001 21.52 8.16001 21.97 8.35501 22.345C8.53501 22.72 8.98501 22.87 9.36001 22.675L9.33001 22.675Z" fill="white"/>
<path d="M1.09499 16.63C2.20499 17.335 3.16499 18.295 3.86999 19.405C4.48499 20.38 4.84499 21.34 5.03999 22.18L3.34499 21.325C3.02999 21.175 2.62499 21.25 2.41499 21.535C2.18999 21.82 2.20499 22.225 2.44499 22.495C3.61499 23.8 4.57499 25.255 5.32499 26.815C5.75999 27.715 6.10499 28.645 6.38999 29.59L4.84499 28.81C4.52999 28.66 4.13999 28.735 3.92999 29.005C3.70499 29.275 3.70499 29.68 3.92999 29.95C6.17999 32.725 8.17499 35.71 9.85499 38.83C10.395 39.835 10.89 40.825 11.34 41.785C11.58 42.31 12.45 42.31 12.705 41.785C13.155 40.825 13.65 39.835 14.19 38.83C15.87 35.71 17.85 32.725 20.115 29.95C20.34 29.68 20.34 29.29 20.115 29.005C19.89 28.735 19.515 28.645 19.2 28.81L17.655 29.59C17.94 28.645 18.285 27.7 18.72 26.815C19.47 25.255 20.445 23.8 21.6 22.495C21.84 22.225 21.855 21.82 21.63 21.535C21.405 21.25 21.03 21.16 20.7 21.325L19.005 22.18C19.2 21.34 19.56 20.38 20.175 19.405C20.88 18.295 21.84 17.335 22.95 16.63C23.265 16.435 23.385 16.03 23.235 15.685C23.115 15.415 22.845 15.25 22.545 15.25C22.47 15.25 22.41 15.25 22.335 15.28C20.415 15.835 18.435 16.24 16.455 16.48C16.05 16.525 15.75 16.9 15.795 17.32C15.84 17.725 16.215 18.025 16.635 17.98C17.67 17.86 18.72 17.68 19.74 17.47C19.44 17.83 19.155 18.205 18.9 18.595C17.73 20.425 17.385 22.24 17.28 23.44C17.265 23.71 17.385 23.965 17.61 24.115C17.835 24.265 18.12 24.28 18.36 24.16L18.495 24.085C18.075 24.76 17.685 25.45 17.34 26.155C16.635 27.64 16.11 29.215 15.78 30.835C15.72 31.12 15.84 31.405 16.065 31.585C16.29 31.75 16.605 31.78 16.86 31.66L16.95 31.615C15.435 33.7 14.07 35.89 12.87 38.14C12.585 38.68 12.3 39.22 12.03 39.76C11.76 39.22 11.475 38.665 11.19 38.14C9.97499 35.89 8.60999 33.7 7.10999 31.615L7.19999 31.66C7.45499 31.78 7.76999 31.75 7.99499 31.585C8.21999 31.405 8.32499 31.12 8.27999 30.835C7.94999 29.215 7.43999 27.64 6.71999 26.155C6.37499 25.435 5.99999 24.745 5.56499 24.085L5.69999 24.16C5.93999 24.28 6.22499 24.265 6.44999 24.115C6.67499 23.965 6.79499 23.71 6.77999 23.44C6.68999 22.24 6.32999 20.425 5.15999 18.595C4.90499 18.205 4.63499 17.83 4.33499 17.47C5.36999 17.68 6.40499 17.845 7.43999 17.98C7.84499 18.04 8.21999 17.74 8.27999 17.32C8.32499 16.915 8.03999 16.54 7.61999 16.48C5.63999 16.24 3.65999 15.835 1.73999 15.28C1.37999 15.175 1.00499 15.355 0.839989 15.685C0.689989 16.03 0.80999 16.435 1.12499 16.63L1.09499 16.63Z" fill="white"/>
</svg>
