<svg width="321" height="33" viewBox="0 0 321 33" fill="none" xmlns="http://www.w3.org/2000/svg">
<path d="M19.848 27.6735H19.012C18.0155 27.6735 17.0598 27.2835 16.3551 26.5893C15.6505 25.8951 15.2546 24.9535 15.2546 23.9717C15.2546 22.9899 15.6505 22.0483 16.3551 21.354C17.0598 20.6598 18.0155 20.2698 19.012 20.2698C19.8259 20.2643 20.6187 20.5247 21.2665 21.0102" stroke="black" stroke-width="1.46" stroke-linecap="round" stroke-linejoin="round"/>
<path d="M19.3784 20.316C19.4131 19.7384 19.641 19.1884 20.0265 18.7519C20.6111 18.1187 21.3418 17.6335 22.1569 17.3374C22.972 17.0412 23.8476 16.9427 24.7095 17.0504C25.5713 17.158 26.3943 17.4685 27.1086 17.9556C27.823 18.4428 28.4077 19.0923 28.8135 19.8491C29.2192 20.606 29.434 21.448 29.4397 22.3039C29.4454 23.1598 29.2418 24.0045 28.8462 24.7665C28.4505 25.5285 27.8744 26.1855 27.1666 26.6818C26.4587 27.1781 25.64 27.4992 24.7796 27.618" stroke="black" stroke-width="1.46" stroke-linecap="round" stroke-linejoin="round"/>
<path d="M85.4525 22.9166H83.7147C83.373 22.9166 83.0347 22.8503 82.719 22.7215C82.4033 22.5927 82.1164 22.4038 81.8748 22.1658C81.6332 21.9277 81.4415 21.6451 81.3108 21.3341C81.18 21.0231 81.1127 20.6897 81.1127 20.3531C81.134 20.1441 81.077 19.9346 80.9524 19.7641C80.8279 19.5937 80.6443 19.474 80.4364 19.4276C79.6453 19.2775 78.9318 18.8613 78.4178 18.2502C77.9038 17.6391 77.6212 16.871 77.6183 16.0774C77.6138 15.6628 77.6903 15.2511 77.8437 14.865V14.8002C77.8437 14.7262 77.8437 14.6799 77.8437 14.6059V14.4948C77.8528 14.4366 77.8528 14.3773 77.8437 14.319C77.8437 14.2727 77.8437 14.2357 77.7686 14.1802C77.7433 14.1306 77.7081 14.0866 77.6653 14.0506C77.6401 13.9977 77.5969 13.9551 77.5431 13.9303C77.5431 13.9303 77.5432 13.8748 77.4774 13.8748C76.8401 13.4783 76.3513 12.888 76.0851 12.1933C75.8189 11.4986 75.7898 10.7374 76.0022 10.0249C76.2146 9.31242 76.6569 8.68756 77.2621 8.245C77.8673 7.80243 78.6024 7.56627 79.3561 7.57231C79.5103 7.56576 79.6597 7.51775 79.7882 7.43349C79.7882 7.43349 79.8352 7.43349 79.854 7.43349C79.9885 7.34777 80.0908 7.22099 80.1452 7.07255C80.8154 5.47888 81.8822 4.07716 83.2472 2.9967C84.6122 1.91623 86.2313 1.19183 87.9553 0.890301C89.6793 0.588774 91.4526 0.719836 93.1116 1.2714C94.7707 1.82296 96.262 2.77726 97.4481 4.04626C97.4968 4.09188 97.5503 4.13221 97.6078 4.16657C97.717 4.24951 97.8444 4.30611 97.9797 4.33182C98.1151 4.35754 98.2548 4.35165 98.3874 4.31465C98.7817 4.17782 99.2035 4.13557 99.6177 4.19139C100.032 4.24722 100.427 4.39951 100.769 4.63564C101.112 4.87178 101.392 5.18495 101.587 5.5492C101.782 5.91345 101.887 6.31828 101.891 6.73013C101.893 7.21967 101.749 7.69902 101.478 8.10908C101.478 8.10908 101.478 8.18312 101.478 8.21088C101.478 8.23865 101.422 8.31268 101.403 8.36821V8.72915C101.403 8.79393 101.459 8.85871 101.478 8.91424C101.467 8.94734 101.467 8.98294 101.478 9.01604C101.478 9.07157 101.572 9.11785 101.619 9.17337C101.666 9.2289 101.675 9.23816 101.703 9.25667C101.731 9.2487 101.76 9.2487 101.788 9.25667C101.852 9.28832 101.918 9.31614 101.985 9.33996C102.933 9.5661 103.777 10.0997 104.38 10.855C104.983 11.6103 105.311 12.5435 105.311 13.5046C105.311 14.4657 104.983 15.3988 104.38 16.1541C103.777 16.9095 102.933 17.4431 101.985 17.6692C101.985 17.6692 101.91 17.6692 101.882 17.7155C101.825 17.7324 101.771 17.7573 101.722 17.7895C101.722 17.7895 101.638 17.8728 101.581 17.9098L101.478 18.0116C101.452 18.0592 101.43 18.1087 101.412 18.1597C101.385 18.2089 101.366 18.262 101.356 18.317V18.678C101.382 18.7733 101.423 18.8639 101.478 18.9464C101.731 19.3319 101.875 19.7772 101.895 20.2361C101.914 20.6949 101.809 21.1506 101.589 21.5557C101.37 21.9608 101.044 22.3007 100.646 22.54C100.248 22.7793 99.7929 22.9094 99.3268 22.9166H95.8606" stroke="black" stroke-width="1.46" stroke-linecap="round" stroke-linejoin="round"/>
<path d="M90.666 12.6439V31.4402" stroke="black" stroke-width="1.46" stroke-linecap="round" stroke-linejoin="round"/>
<path d="M90.666 20.4456L96.6872 18.3633" stroke="black" stroke-width="1.46" stroke-linecap="round" stroke-linejoin="round"/>
<path d="M90.6659 18.3633L84.7574 14.7447" stroke="black" stroke-width="1.46" stroke-linecap="round" stroke-linejoin="round"/>
<path d="M22.3467 23.3516V31.3662" stroke="black" stroke-width="1.46" stroke-linecap="round" stroke-linejoin="round"/>
<path d="M22.3467 27.1182L24.836 25.6005" stroke="black" stroke-width="1.46" stroke-linecap="round" stroke-linejoin="round"/>
<path d="M22.3467 25.545L19.9326 24.0735" stroke="black" stroke-width="1.46" stroke-linecap="round" stroke-linejoin="round"/>
<path d="M128.447 14.8928C129.135 14.8841 129.819 15.0115 130.457 15.2677C131.094 15.5239 131.674 15.9036 132.16 16.3843C132.646 16.865 133.029 17.4369 133.287 18.0661C133.545 18.6954 133.672 19.3692 133.66 20.0477C133.655 21.4076 133.104 22.7102 132.127 23.671C131.15 24.6317 129.827 25.1724 128.447 25.1748H127.291" stroke="black" stroke-width="1.46" stroke-linecap="round" stroke-linejoin="round"/>
<path d="M118.8 25.1747H117.381C115.733 25.1795 114.147 24.5544 112.956 23.4309C111.766 22.3073 111.064 20.7729 110.999 19.1501C110.933 17.5273 111.508 15.9427 112.604 14.7293C113.7 13.5159 115.23 12.7684 116.874 12.6438C117.342 11.1092 118.284 9.7563 119.569 8.77288C120.853 7.78946 122.416 7.22428 124.041 7.15578C126.001 7.15823 127.88 7.92638 129.266 9.29176C130.652 10.6571 131.431 12.5083 131.434 14.4392V15.3647" stroke="black" stroke-width="1.46" stroke-linecap="round" stroke-linejoin="round"/>
<path d="M123.045 17.8172V31.4402" stroke="black" stroke-width="1.46" stroke-linecap="round" stroke-linejoin="round"/>
<path d="M123.045 24.2307L127.282 21.6487" stroke="black" stroke-width="1.46" stroke-linecap="round" stroke-linejoin="round"/>
<path d="M123.045 21.5469L118.95 19.0389" stroke="black" stroke-width="1.46" stroke-linecap="round" stroke-linejoin="round"/>
<path d="M116.01 31.4402H149.798" stroke="black" stroke-width="1.46" stroke-linecap="round" stroke-linejoin="round"/>
<path d="M0.732171 31.4402H112.562" stroke="black" stroke-width="1.46" stroke-linecap="round" stroke-linejoin="round"/>
</svg>
