<svg id="badam_tree" data-name="badam tree" xmlns="http://www.w3.org/2000/svg" viewBox="0 0 36 48"><defs><style>.cls-1{fill:#fff;}.cls-1,.cls-2{stroke:#000;stroke-linecap:round;stroke-linejoin:round;stroke-width:1.46px;}.cls-2{fill:none;}</style></defs><path class="cls-1" d="M15.39,42.28H14.5a4,4,0,0,1,0-8l.39,0h0a2.8,2.8,0,0,1,.69-1.68,5.75,5.75,0,0,1,9.75,2.18,5.78,5.78,0,0,1-4.68,7.4"/><path class="cls-2" d="M15.39,42.28H14.5a4,4,0,1,1,2.4-7.18"/><path class="cls-2" d="M14.89,34.32h0a2.8,2.8,0,0,1,.69-1.68,5.75,5.75,0,0,1,9.75,2.18,5.78,5.78,0,0,1-4.68,7.4"/><line class="cls-2" x1="18.05" y1="37.6" x2="18.05" y2="46.26"/><line class="cls-2" x1="18.05" y1="41.68" x2="20.7" y2="40.04"/><line class="cls-2" x1="18.05" y1="39.98" x2="15.48" y2="38.38"/></svg>