<svg id="badam_tree" data-name="badam tree" xmlns="http://www.w3.org/2000/svg" viewBox="0 0 36 48"><defs><style>.cls-1{fill:#fff;}.cls-1,.cls-2{stroke:#000;stroke-linecap:round;stroke-linejoin:round;stroke-width:1.46px;}.cls-2{fill:none;}</style></defs><path class="cls-1" d="M23.83,42.22A44.36,44.36,0,0,1,31.56,44a1,1,0,0,0,1.18-.6c.2-.51-.34-1.41-.34-1.41a12.75,12.75,0,0,1-3.64-4.13,14.42,14.42,0,0,1-1.54-4.14L29.45,35a.91.91,0,0,0,1.22-.31,1.25,1.25,0,0,0,0-1.43,27.83,27.83,0,0,1-3.79-6.44,31.35,31.35,0,0,1-1.4-4.13l2,1.16a.93.93,0,0,0,1.21-.29,1.25,1.25,0,0,0,0-1.41A87,87,0,0,1,20.89,8.91c-.71-1.5-1.36-3-1.95-4.41a1,1,0,0,0-1.8,0c-.59,1.43-1.24,2.91-2,4.41A85.37,85.37,0,0,1,7.4,22.14a1.25,1.25,0,0,0,0,1.41.9.9,0,0,0,1.2.29l2-1.16a30.39,30.39,0,0,1-1.4,4.13,28.56,28.56,0,0,1-3.79,6.44,1.22,1.22,0,0,0,0,1.43A.89.89,0,0,0,6.63,35l2.23-1.27a14.72,14.72,0,0,1-1.54,4.14A12.86,12.86,0,0,1,3.68,42,1.21,1.21,0,0,0,3.3,43.4a1,1,0,0,0,.91.65.52.52,0,0,0,.27,0,44.36,44.36,0,0,1,7.73-1.78"/><line class="cls-2" x1="18.05" y1="23.98" x2="18.05" y2="46.26"/><line class="cls-2" x1="18.05" y1="36.95" x2="23.28" y2="33.29"/><line class="cls-2" x1="18.05" y1="33.15" x2="12.99" y2="29.58"/></svg>