<svg id="badam_tree" data-name="badam tree" xmlns="http://www.w3.org/2000/svg" viewBox="0 0 36 48"><defs><style>.cls-1{fill:#fff;}.cls-1,.cls-2{stroke:#000;stroke-linecap:round;stroke-linejoin:round;stroke-width:1.46px;}.cls-2{fill:none;}</style></defs><path class="cls-1" d="M21.83,42.8h1.94A2.45,2.45,0,0,0,26,41.25a3.13,3.13,0,0,0-.25-3h0l-1.39-2a3.12,3.12,0,0,0,.15-3.61l-1.35-2.11a3.37,3.37,0,0,0,.14-3.58l-3.2-5.4a2.29,2.29,0,0,0-4.08,0l-3.2,5.4A3.35,3.35,0,0,0,13,30.48l-1.35,2.11a3.12,3.12,0,0,0-.46,2.22,3.07,3.07,0,0,0,.61,1.39l-1.39,2a3.13,3.13,0,0,0-.26,3,2.46,2.46,0,0,0,2.22,1.55h1.93"/><line class="cls-2" x1="18" y1="30.98" x2="18" y2="46.26"/><line class="cls-2" x1="18" y1="39.88" x2="20.63" y2="38.56"/><line class="cls-2" x1="18" y1="37.26" x2="15.49" y2="36.04"/></svg>