<svg id="badam_tree" data-name="badam tree" xmlns="http://www.w3.org/2000/svg" viewBox="0 0 36 48"><defs><style>.cls-1{fill:#fff;}.cls-1,.cls-2{stroke:#000;stroke-linecap:round;stroke-linejoin:round;stroke-width:1.46px;}.cls-2{fill:none;}</style></defs><path class="cls-1" d="M13.53,40.65H12a6.78,6.78,0,0,1-.54-13.53h0a8.35,8.35,0,0,1,7.63-5.94A7.89,7.89,0,0,1,27,29.06v1l-.08.39a5.65,5.65,0,0,1,2.45,4.66,5.56,5.56,0,0,1-5.55,5.55H22.57"/><path class="cls-2" d="M23.8,29.55a5.47,5.47,0,0,1,5.55,5.55,5.56,5.56,0,0,1-5.55,5.55H22.57"/><path class="cls-2" d="M13.53,40.65H12a6.78,6.78,0,0,1-.54-13.53h0a8.35,8.35,0,0,1,7.63-5.94A7.89,7.89,0,0,1,27,29.06v1"/><line class="cls-2" x1="18.05" y1="32.71" x2="18.05" y2="46.26"/><line class="cls-2" x1="18.05" y1="39.63" x2="22.56" y2="36.84"/><line class="cls-2" x1="18.05" y1="36.74" x2="13.69" y2="34.03"/></svg>