<svg id="badam_tree" data-name="badam tree" xmlns="http://www.w3.org/2000/svg" viewBox="0 0 36 48"><defs><style>.cls-1{fill:#fff;}.cls-1,.cls-2{stroke:#000;stroke-linecap:round;stroke-linejoin:round;stroke-width:1.46px;}.cls-2{fill:none;}</style></defs><path class="cls-1" d="M12.49,37.05H10.64a2.76,2.76,0,0,1-2.76-2.77h0a.94.94,0,0,0-.72-1,3.69,3.69,0,0,1-2.74-4.93v-.07c0-.08,0-.13,0-.21v-.16a.65.65,0,0,0,0-.19.23.23,0,0,0-.07-.14.83.83,0,0,0-.11-.15.53.53,0,0,0-.13-.13s0-.06-.08-.06a3.69,3.69,0,0,1,2-6.81.79.79,0,0,0,.46-.15.18.18,0,0,0,.08-.05.85.85,0,0,0,.31-.39,11,11,0,0,1,10.23-6.79,11.16,11.16,0,0,1,8.2,3.61h0a.61.61,0,0,0,.16.13.91.91,0,0,0,.83.11,2.8,2.8,0,0,1,1-.16A2.76,2.76,0,0,1,30,19.51,2.63,2.63,0,0,1,29.57,21s0,.08,0,.11a1.22,1.22,0,0,1-.07.17v.39c0,.07.06.15.07.2a.15.15,0,0,0,.06.11,1.14,1.14,0,0,0,.15.17s.05.07.09.09a0,0,0,0,0,0,0,.18.18,0,0,1,.09,0,1.76,1.76,0,0,0,.2.09,4.63,4.63,0,0,1,0,9s-.07,0-.11.06a.37.37,0,0,0-.16.07l0,0c-.06,0-.09.09-.15.13l-.11.11a.37.37,0,0,0-.07.16.58.58,0,0,0-.06.17v.39a.76.76,0,0,0,.13.29,2.81,2.81,0,0,1,.42,1.5,2.76,2.76,0,0,1-2.77,2.77H23.55"/><line class="cls-2" x1="18.05" y1="25.95" x2="18.05" y2="46.26"/><line class="cls-2" x1="18.05" y1="34.39" x2="24.46" y2="32.14"/><line class="cls-2" x1="18.05" y1="32.14" x2="11.75" y2="28.22"/></svg>